<mxfile host="app.diagrams.net" modified="2023-03-21T23:33:10.654Z" agent="5.0 (Windows NT 10.0; Win64; x64) AppleWebKit/537.36 (KHTML, like Gecko) Chrome/111.0.0.0 Safari/537.36" etag="Xth24QN0AWnUjQ268EvZ" version="21.0.10" type="github">
  <diagram name="Página-1" id="u2S5PKuPikYts0rGR-3p">
    <mxGraphModel dx="1434" dy="796" grid="1" gridSize="10" guides="1" tooltips="1" connect="1" arrows="1" fold="1" page="1" pageScale="1" pageWidth="827" pageHeight="1169" math="0" shadow="0">
      <root>
        <mxCell id="0" />
        <mxCell id="1" parent="0" />
        <mxCell id="Yd0iQDe8wEvrB5K7nMH2-28" style="rounded=0;orthogonalLoop=1;jettySize=auto;html=1;entryX=1;entryY=0.5;entryDx=0;entryDy=0;endArrow=none;endFill=0;" edge="1" parent="1" source="9-GlYlqcr-Zi9w0tSnu7-2" target="9-GlYlqcr-Zi9w0tSnu7-9">
          <mxGeometry relative="1" as="geometry" />
        </mxCell>
        <mxCell id="Yd0iQDe8wEvrB5K7nMH2-29" style="rounded=0;orthogonalLoop=1;jettySize=auto;html=1;entryX=1.006;entryY=0.66;entryDx=0;entryDy=0;entryPerimeter=0;endArrow=none;endFill=0;" edge="1" parent="1" source="9-GlYlqcr-Zi9w0tSnu7-2" target="Yd0iQDe8wEvrB5K7nMH2-10">
          <mxGeometry relative="1" as="geometry" />
        </mxCell>
        <mxCell id="Yd0iQDe8wEvrB5K7nMH2-30" style="rounded=0;orthogonalLoop=1;jettySize=auto;html=1;entryX=0.967;entryY=0.68;entryDx=0;entryDy=0;entryPerimeter=0;endArrow=none;endFill=0;" edge="1" parent="1" source="9-GlYlqcr-Zi9w0tSnu7-2" target="9-GlYlqcr-Zi9w0tSnu7-17">
          <mxGeometry relative="1" as="geometry" />
        </mxCell>
        <mxCell id="Yd0iQDe8wEvrB5K7nMH2-31" style="rounded=0;orthogonalLoop=1;jettySize=auto;html=1;entryX=0.971;entryY=0.8;entryDx=0;entryDy=0;entryPerimeter=0;endArrow=none;endFill=0;" edge="1" parent="1" source="9-GlYlqcr-Zi9w0tSnu7-2" target="9-GlYlqcr-Zi9w0tSnu7-15">
          <mxGeometry relative="1" as="geometry" />
        </mxCell>
        <mxCell id="Yd0iQDe8wEvrB5K7nMH2-44" style="rounded=0;orthogonalLoop=1;jettySize=auto;html=1;entryX=1;entryY=0.5;entryDx=0;entryDy=0;endArrow=none;endFill=0;" edge="1" parent="1" source="9-GlYlqcr-Zi9w0tSnu7-2" target="9-GlYlqcr-Zi9w0tSnu7-14">
          <mxGeometry relative="1" as="geometry" />
        </mxCell>
        <mxCell id="Yd0iQDe8wEvrB5K7nMH2-46" style="rounded=0;orthogonalLoop=1;jettySize=auto;html=1;entryX=0.979;entryY=0.65;entryDx=0;entryDy=0;entryPerimeter=0;endArrow=none;endFill=0;" edge="1" parent="1" source="9-GlYlqcr-Zi9w0tSnu7-2" target="9-GlYlqcr-Zi9w0tSnu7-7">
          <mxGeometry relative="1" as="geometry" />
        </mxCell>
        <mxCell id="9-GlYlqcr-Zi9w0tSnu7-2" value="Funcionário&amp;nbsp;" style="shape=umlActor;html=1;verticalLabelPosition=bottom;verticalAlign=top;align=center;" parent="1" vertex="1">
          <mxGeometry x="700" y="590" width="30" height="60" as="geometry" />
        </mxCell>
        <mxCell id="9-GlYlqcr-Zi9w0tSnu7-12" style="rounded=0;orthogonalLoop=1;jettySize=auto;html=1;endArrow=none;endFill=0;" parent="1" source="9-GlYlqcr-Zi9w0tSnu7-3" target="9-GlYlqcr-Zi9w0tSnu7-7" edge="1">
          <mxGeometry relative="1" as="geometry" />
        </mxCell>
        <mxCell id="9-GlYlqcr-Zi9w0tSnu7-18" style="rounded=0;orthogonalLoop=1;jettySize=auto;html=1;entryX=0;entryY=1;entryDx=0;entryDy=0;endArrow=none;endFill=0;" parent="1" source="9-GlYlqcr-Zi9w0tSnu7-3" target="9-GlYlqcr-Zi9w0tSnu7-14" edge="1">
          <mxGeometry relative="1" as="geometry" />
        </mxCell>
        <mxCell id="Yd0iQDe8wEvrB5K7nMH2-1" style="rounded=0;orthogonalLoop=1;jettySize=auto;html=1;entryX=0;entryY=0.5;entryDx=0;entryDy=0;endArrow=none;endFill=0;" edge="1" parent="1" source="9-GlYlqcr-Zi9w0tSnu7-3" target="9-GlYlqcr-Zi9w0tSnu7-15">
          <mxGeometry relative="1" as="geometry">
            <mxPoint x="180" y="470" as="targetPoint" />
          </mxGeometry>
        </mxCell>
        <mxCell id="Yd0iQDe8wEvrB5K7nMH2-2" style="rounded=0;orthogonalLoop=1;jettySize=auto;html=1;entryX=0;entryY=0.5;entryDx=0;entryDy=0;endArrow=none;endFill=0;" edge="1" parent="1" source="9-GlYlqcr-Zi9w0tSnu7-3" target="9-GlYlqcr-Zi9w0tSnu7-17">
          <mxGeometry relative="1" as="geometry" />
        </mxCell>
        <mxCell id="Yd0iQDe8wEvrB5K7nMH2-15" style="rounded=0;orthogonalLoop=1;jettySize=auto;html=1;endArrow=none;endFill=0;" edge="1" parent="1" source="9-GlYlqcr-Zi9w0tSnu7-3" target="Yd0iQDe8wEvrB5K7nMH2-10">
          <mxGeometry relative="1" as="geometry" />
        </mxCell>
        <mxCell id="Yd0iQDe8wEvrB5K7nMH2-16" style="rounded=0;orthogonalLoop=1;jettySize=auto;html=1;endArrow=none;endFill=0;" edge="1" parent="1" source="9-GlYlqcr-Zi9w0tSnu7-3" target="9-GlYlqcr-Zi9w0tSnu7-9">
          <mxGeometry relative="1" as="geometry" />
        </mxCell>
        <mxCell id="9-GlYlqcr-Zi9w0tSnu7-3" value="Cliente" style="shape=umlActor;html=1;verticalLabelPosition=bottom;verticalAlign=top;align=center;" parent="1" vertex="1">
          <mxGeometry x="70" y="410" width="30" height="60" as="geometry" />
        </mxCell>
        <mxCell id="9-GlYlqcr-Zi9w0tSnu7-4" value="Caixa eletrônico" style="shape=umlActor;html=1;verticalLabelPosition=bottom;verticalAlign=top;align=center;" parent="1" vertex="1">
          <mxGeometry x="700" y="420" width="30" height="60" as="geometry" />
        </mxCell>
        <mxCell id="Yd0iQDe8wEvrB5K7nMH2-6" style="rounded=0;orthogonalLoop=1;jettySize=auto;html=1;endArrow=none;endFill=0;" edge="1" parent="1" source="9-GlYlqcr-Zi9w0tSnu7-7" target="9-GlYlqcr-Zi9w0tSnu7-4">
          <mxGeometry relative="1" as="geometry" />
        </mxCell>
        <mxCell id="9-GlYlqcr-Zi9w0tSnu7-7" value="&lt;br&gt;Depositar dinheiro;&lt;br&gt;" style="ellipse;whiteSpace=wrap;html=1;fillColor=#f8cecc;strokeColor=#b85450;" parent="1" vertex="1">
          <mxGeometry x="282.5" y="270" width="170" height="60" as="geometry" />
        </mxCell>
        <mxCell id="9-GlYlqcr-Zi9w0tSnu7-9" value="Encerrar conta;" style="ellipse;whiteSpace=wrap;html=1;fillColor=#fff2cc;strokeColor=#d6b656;" parent="1" vertex="1">
          <mxGeometry x="285" y="600" width="170" height="60" as="geometry" />
        </mxCell>
        <mxCell id="Yd0iQDe8wEvrB5K7nMH2-5" style="rounded=0;orthogonalLoop=1;jettySize=auto;html=1;endArrow=none;endFill=0;" edge="1" parent="1" source="9-GlYlqcr-Zi9w0tSnu7-14" target="9-GlYlqcr-Zi9w0tSnu7-4">
          <mxGeometry relative="1" as="geometry" />
        </mxCell>
        <mxCell id="Yd0iQDe8wEvrB5K7nMH2-9" style="rounded=0;orthogonalLoop=1;jettySize=auto;html=1;startArrow=none;startFill=0;endArrow=none;endFill=0;" edge="1" parent="1" source="9-GlYlqcr-Zi9w0tSnu7-15">
          <mxGeometry relative="1" as="geometry">
            <mxPoint x="690" y="450" as="targetPoint" />
          </mxGeometry>
        </mxCell>
        <mxCell id="Yd0iQDe8wEvrB5K7nMH2-8" style="rounded=0;orthogonalLoop=1;jettySize=auto;html=1;startArrow=none;startFill=0;endArrow=none;endFill=0;" edge="1" parent="1" source="9-GlYlqcr-Zi9w0tSnu7-17" target="9-GlYlqcr-Zi9w0tSnu7-4">
          <mxGeometry relative="1" as="geometry">
            <mxPoint x="550" y="500" as="targetPoint" />
          </mxGeometry>
        </mxCell>
        <mxCell id="9-GlYlqcr-Zi9w0tSnu7-17" value="&lt;br&gt;Emitir extrato.." style="ellipse;whiteSpace=wrap;html=1;fillColor=#f8cecc;strokeColor=#b85450;" parent="1" vertex="1">
          <mxGeometry x="282.5" y="520" width="150" height="50" as="geometry" />
        </mxCell>
        <mxCell id="Yd0iQDe8wEvrB5K7nMH2-10" value="Abrir conta;&lt;br&gt;" style="ellipse;whiteSpace=wrap;html=1;fillColor=#fff2cc;strokeColor=#d6b656;" vertex="1" parent="1">
          <mxGeometry x="280" y="690" width="170" height="50" as="geometry" />
        </mxCell>
        <mxCell id="Yd0iQDe8wEvrB5K7nMH2-37" style="edgeStyle=orthogonalEdgeStyle;rounded=0;orthogonalLoop=1;jettySize=auto;html=1;endArrow=block;endFill=0;" edge="1" parent="1" source="Yd0iQDe8wEvrB5K7nMH2-19">
          <mxGeometry relative="1" as="geometry">
            <mxPoint x="90" y="520" as="targetPoint" />
          </mxGeometry>
        </mxCell>
        <mxCell id="Yd0iQDe8wEvrB5K7nMH2-19" value="PF" style="shape=umlActor;html=1;verticalLabelPosition=bottom;verticalAlign=top;align=center;" vertex="1" parent="1">
          <mxGeometry x="20" y="540" width="30" height="60" as="geometry" />
        </mxCell>
        <mxCell id="Yd0iQDe8wEvrB5K7nMH2-39" style="rounded=0;orthogonalLoop=1;jettySize=auto;html=1;endArrow=none;endFill=0;" edge="1" parent="1" source="Yd0iQDe8wEvrB5K7nMH2-35">
          <mxGeometry relative="1" as="geometry">
            <mxPoint x="80" y="570" as="targetPoint" />
          </mxGeometry>
        </mxCell>
        <mxCell id="Yd0iQDe8wEvrB5K7nMH2-35" value="PJ" style="shape=umlActor;html=1;verticalLabelPosition=bottom;verticalAlign=top;align=center;" vertex="1" parent="1">
          <mxGeometry x="130" y="540" width="30" height="60" as="geometry" />
        </mxCell>
        <mxCell id="9-GlYlqcr-Zi9w0tSnu7-15" value="&lt;br&gt;Emitir saldo;&lt;br&gt;" style="ellipse;whiteSpace=wrap;html=1;fillColor=#f8cecc;strokeColor=#b85450;" parent="1" vertex="1">
          <mxGeometry x="280" y="440" width="175" height="50" as="geometry" />
        </mxCell>
        <mxCell id="9-GlYlqcr-Zi9w0tSnu7-14" value="&lt;br&gt;Sacar valor;&lt;br&gt;." style="ellipse;whiteSpace=wrap;html=1;fillColor=#f8cecc;strokeColor=#b85450;" parent="1" vertex="1">
          <mxGeometry x="280" y="360" width="170" height="60" as="geometry" />
        </mxCell>
      </root>
    </mxGraphModel>
  </diagram>
</mxfile>
